# xmcd
#
# Track frame offsets:
#	150
#	20539
#	33430
#	49308
#	61389
#	80031
#	92403
#	106541
#	117621
#	134949
#	151987
#	165002
#	177690
#	190059
#	205766
#	225757
#	239870
#	257665
#	273864
#	287749
#	299834
#
# Disc length: 4254 seconds
#
# Revision: 2
# Processed by: cddbd v1.4PL0 Copyright (c) Steve Scherf et al.
# Submitted via: dBpowerAMP V4.0
#
DISCID=31109c15
DTITLE=Nino Bravo - Esta Es Mi Historia
DYEAR=2002
DGENRE=Pop
TTITLE0=Un Beso Y Una Flor
TTITLE1=Te Quiero, Te Quiero
TTITLE2=America, America
TTITLE3=Es El Viento
TTITLE4=Libre
TTITLE5=Mi Gran Amor
TTITLE6=Nohelia
TTITLE7=Tu Cambiaras
TTITLE8=Cartas Amarillas
TTITLE9=Puerta De Amor
TTITLE10=Mis Noches Sin Ti
TTITLE11=No Debo Pensar En Ti
TTITLE12=Volver A Empezar
TTITLE13=Por Fin Mañana
TTITLE14=Mi Tierra
TTITLE15=Como Todos
TTITLE16=Esa Sera Mi Casa
TTITLE17=Monalisa
TTITLE18=Nuestro Hogar Sera El Mundo
TTITLE19=Mi Querida Mama
TTITLE20=Libre -A Duo Con Francisco-
EXTD=
EXTT0=
EXTT1=
EXTT2=
EXTT3=
EXTT4=
EXTT5=
EXTT6=
EXTT7=
EXTT8=
EXTT9=
EXTT10=
EXTT11=
EXTT12=
EXTT13=
EXTT14=
EXTT15=
EXTT16=
EXTT17=
EXTT18=
EXTT19=
EXTT20=
PLAYORDER=
